<svg id="TIU_Circle_Logo" data-name="TIU Circle Logo" xmlns="http://www.w3.org/2000/svg" viewBox="0 0 287.44 287.63">
  <defs>
    <style>
      .cls-3{fill:#fefefe}.cls-10{fill:#7b0b0d}.cls-11{fill:#7c0e10}
    </style>
  </defs>
  <path d="M293 250.17A131.09 131.09 0 01370.68 278c41.45 32.08 62 74.88 57.86 127.14-5.49 69.86-59.28 122.65-122.49 131.17-78.79 10.62-150.41-42.48-162.7-120.81-12.65-80.64 45.43-156.14 126.74-164.76 3.31-.35 6.6-1 10-.59a49 49 0 0012.91.02z" transform="translate(-141.62 -250.03)" fill="#821517"/>
  <path d="M293 250.17a20.89 20.89 0 01-12.92 0z" transform="translate(-141.62 -250.03)" fill="#790406"/>
  <path class="cls-3" d="M148.15 393.72A137.57 137.57 0 01285.72 256c75-.11 137.28 62.41 137.3 137.85 0 75.25-61.58 137.4-136.34 137.55-77.11.12-138.43-60.81-138.53-137.68z" transform="translate(-141.62 -250.03)"/>
  <path d="M410 403c-1.1 25.59-9.55 48.76-25.33 68.65-33.36 42-77.11 59.11-129.33 46.22-52.93-13.06-84.7-48.88-94.23-102.38-12.34-69.3 32.59-133.27 101.56-146.92 6-1.19 12.13-2.11 18.34-1.64a11.64 11.64 0 008 0c24.75.23 47.15 8 67.14 22.22 31.45 22.37 49.1 53.12 53.71 91.39a39.15 39.15 0 01.07 4.47A70.64 70.64 0 00410 403z" transform="translate(-141.62 -250.03)" fill="#7f1517"/>
  <path d="M410 403a34.76 34.76 0 010-18 75.54 75.54 0 010 18z" transform="translate(-141.62 -250.03)" fill="#750205"/>
  <path d="M289 266.94a7.15 7.15 0 01-8 0 21.52 21.52 0 018 0z" transform="translate(-141.62 -250.03)" fill="#790a0c"/>
  <path class="cls-3" d="M377.85 467.7c-3.05 12.26-7.08 15.36-20 15.37-12.64 0-25.29.05-37.93 0-10.52-.05-16.85-6.15-16.87-16.71-.12-41.42-.06-82.85-.13-124.27 0-2.44.08-4.06 3.33-4 9 .2 18 .07 27 .06a3.31 3.31 0 012.72 1c.8 1 .52 2.22.52 3.36v105.15c0 1.14.23 2.34-.48 3.39 2.68 1.88 5.38 1.43 8.09.09 1.7-1.46.85-3.43.86-5.14q.07-50.62.05-101.25c0-7.42-.87-6.46 6.74-6.51h21.45c1.62 0 3.37-.42 4.69 1 1 1.15.6 2.54.6 3.83v120.82c-.02 1.28.42 2.68-.64 3.81zM196 338.11c14.49.1 29 .23 43.46.27 17 .05 34 .13 51-.07 4.19-.05 5.36 1.3 5.35 5.42q-.22 67.25 0 134.49c0 4.1-1.25 5-5.06 4.88-8.32-.27-16.67-.35-25 0-4.37.2-5.09-1.37-5.07-5.34.15-32.49.1-65 .06-97.49 0-1.78.54-3.66-.51-5.36-1.73-.85-3.59-.42-5.38-.42-24.19 0-48.38 0-72.57-.07-1.72 0-3.64.77-5.2-.71-.53-11.79-.57-23.58 0-35.38 6.31-1.52 12.63-1.02 18.92-.22z" transform="translate(-141.62 -250.03)"/>
  <path class="cls-3" d="M254.86 481.74c-1.18 2-3.44 1.39-5.16 2.1a117.17 117.17 0 01-27.38 0c-3.68-.26-3.88-2.94-3.89-5.67q-.06-16.21-.05-32.42v-59.84c0-6.55.58-7.09 7.11-7.11 7.82 0 15.63.07 23.44 0 2.82 0 4.79.89 5.92 3.49.94 1 .61 2.2.61 3.32v92.86c.01 1.08.35 2.31-.6 3.27zM221.05 328.81a6 6 0 01-3-5.73q.1-13.86 0-27.71a6.4 6.4 0 012.33-5.17c3.34-1.4 6.85-.68 10.25-.62 7.77.13 15.57-.75 23.32.46l3 3.18c2.24 7.77 1.72 15.73 1.19 23.62-.24 3.64 1.19 7.8-2.27 10.82l-2 1.22c-9.3 1.34-18.66.28-28 .56-1.65.05-3.39.63-4.82-.63z" transform="translate(-141.62 -250.03)"/>
  <path class="cls-3" d="M260.05 303.11c5.81-10.61 13.16-15 22.52-13.36a20.08 20.08 0 11-20.64 29.64c-.66-1.14-1.27-2.3-1.9-3.46-3.24-4.28-2.68-8.55.02-12.82z" transform="translate(-141.62 -250.03)"/>
  <path d="M377.85 467.7c-.08-10.79-.21-21.57-.22-32.35v-90.66c0-1.82.16-3.64.24-5.46 1.93-.46 1.09 1.08 1.09 1.7q.06 63.17 0 126.33a12.54 12.54 0 01-.09 1.49c0 .05-.35.14-.38.11-.2-.38-.42-.77-.64-1.16z" transform="translate(-141.62 -250.03)" fill="#7c0f11"/>
  <path d="M301.14 466.65V339.33h.49v127.54z" transform="translate(-141.62 -250.03)" fill="#7d0f12"/>
  <path d="M336 451c-.07-17.48-.2-35-.21-52.45 0-19.82.1-39.64.16-59.45 2 .08 1 1.63 1 2.42q.09 52.65 0 105.3c.05 1.45.46 3.05-.95 4.18z" transform="translate(-141.62 -250.03)" fill="#750003"/>
  <path class="cls-10" d="M344.09 451.09c-1.44-1.1-1.08-2.69-1.08-4.15V342.05a2 2 0 011.07-1.88v110.92z" transform="translate(-141.62 -250.03)"/>
  <path class="cls-11" d="M254.86 481.74v-99.5c1.93-.48 1.1 1.07 1.1 1.69q.07 48.07 0 96.15a8.94 8.94 0 01-.3 1.84c0 .06-.29.12-.42.09s-.24-.17-.38-.27z" transform="translate(-141.62 -250.03)"/>
  <path d="M177.07 373.73q39.65 0 79.28-.07c1.35 0 3.1-.69 3.87 1.27q-39.59 0-79.17.05c-1.42.02-3.05.48-3.98-1.25z" transform="translate(-141.62 -250.03)" fill="#770507"/>
  <path d="M260.05 303.11a29.49 29.49 0 000 12.82c-2 3.3-.21 7.3-2 10.64-.49.91-.51 2.61-2.19 1.09 1.78-5 .81-10.09.93-15.15.16-6.43.11-12.86.15-19.29.29-1.13.34-2.17 1.3-.18 1.51 3.24-.24 6.96 1.81 10.07z" transform="translate(-141.62 -250.03)" fill="#7f1315"/>
  <path d="M317.34 484.16h45.32v.49h-45.52z" transform="translate(-141.62 -250.03)" fill="#7a0b0d"/>
  <path class="cls-11" d="M253.92 290l-33.57.16c-.61-.72-.4-1.18.49-1.19h32.66c.13 0 .37.11.39.19a4.69 4.69 0 01.03.84z" transform="translate(-141.62 -250.03)"/>
  <path d="M262.48 484.2h32.31v.49h-32.73z" transform="translate(-141.62 -250.03)" fill="#7b0c0e"/>
  <path d="M222.32 483.83c9.13-.4 18.25-.42 27.38 0 1 .5 2.33-.24 3.36 1h-32.89c0-.16 0-.32-.08-.48z" transform="translate(-141.62 -250.03)" fill="#760406"/>
  <ellipse class="cls-10" cx="33.89" cy="106.36" rx=".3" ry="23.11"/>
  <path d="M221.05 328.81l32.73.07c.6.92 0 1.12-.73 1.12H223.6a2.55 2.55 0 01-2.55-1.19z" transform="translate(-141.62 -250.03)" fill="#7c0e11"/>
  <path d="M196 338.11l-18.94.24c6.32-2.35 12.63-1.92 18.94-.24z" transform="translate(-141.62 -250.03)" fill="#7c0d0f"/>
</svg>
